<svg width="44" height="44" viewBox="0 0 44 44" fill="none" xmlns="http://www.w3.org/2000/svg">
<g clip-path="url(#clip0_9904_73365)">
<path d="M0 0H44V44H0V0Z" fill="#19AA1E"/>
<path fill-rule="evenodd" clip-rule="evenodd" d="M0 0H44V14.436L0 7.56198V0Z" fill="#FFB919"/>
<path fill-rule="evenodd" clip-rule="evenodd" d="M0 39.1865L44 32.3125V43.9994H0V39.1865Z" fill="#82D714"/>
<path fill-rule="evenodd" clip-rule="evenodd" d="M0 6.69336L15.3586 9.09314C17.2704 7.88259 19.5449 7.21865 21.9993 7.21865C25.399 7.21865 28.4548 8.49186 30.6785 10.7263C30.9585 11.009 31.2225 11.3036 31.4718 11.6102L44 13.5674V15.3072L32.7437 13.5474C33.5862 15.158 34.0275 16.948 34.0302 18.7656C34.0302 21.1227 33.5036 23.4732 32.4131 25.833L32.3811 25.905L31.9171 26.8969H30.8239C28.5627 26.8969 27.0642 27.5728 26.083 28.7714C25.3137 29.7113 24.8684 30.9805 24.7191 32.3644L24.7138 32.407L24.6924 32.6283L24.6831 32.7243L24.6644 32.9123C24.6071 33.5309 24.5698 34.0549 24.5498 34.4815L44 31.4418V33.1816L0 40.057V38.3172L19.4716 35.2748L19.4636 34.8841L19.4609 34.7748L19.4582 34.7175L19.4556 34.6308C19.4382 34.1575 19.3942 33.5509 19.3249 32.815L19.3116 32.675L19.2876 32.4337C19.1489 31.0418 18.7103 29.7579 17.941 28.8034C16.9718 27.5968 15.4879 26.9102 13.2441 26.8969H12.0816L11.6189 25.905C10.507 23.5212 9.96843 21.1467 9.96843 18.7656C9.96843 15.7712 11.183 12.8755 13.3215 10.7263L13.5081 10.5437L0 8.43187V6.69336Z" fill="white"/>
<path fill-rule="evenodd" clip-rule="evenodd" d="M21.9999 8.9375C28.1433 8.9375 32.3123 13.6651 32.3123 18.7659C32.3123 20.8138 31.8657 22.9442 30.8231 25.1787C24.7796 25.1787 23.2878 29.5063 23.0051 32.2314L22.9865 32.4114C22.8918 33.3846 22.8358 34.1645 22.8212 34.7512L21.184 35.0071V34.9538C21.1612 34.0874 21.1025 33.2223 21.008 32.3607L21.004 32.3127C20.7427 29.5943 19.2828 25.1787 13.178 25.1787C12.1341 22.9442 11.6875 20.8138 11.6875 18.7659C11.6875 13.6651 15.8578 8.9375 21.9999 8.9375Z" fill="#0073FA"/>
</g>
<defs>
<clipPath id="clip0_9904_73365">
<rect width="44" height="44" rx="22" fill="white"/>
</clipPath>
</defs>
</svg>
