<svg width="44" height="44" viewBox="0 0 44 44" fill="none" xmlns="http://www.w3.org/2000/svg">
<g clip-path="url(#clip0_9904_73367)">
<path d="M44.0019 22.001C44.0019 26.3524 42.7116 30.6062 40.294 34.2243C37.8764 37.8423 34.4402 40.6623 30.4199 42.3274C26.3997 43.9925 21.9759 44.4281 17.7081 43.5791C13.4403 42.73 9.52007 40.6344 6.44326 37.5573C3.36645 34.4802 1.27121 30.5599 0.422516 26.292C-0.426177 22.0241 0.00979198 17.6003 1.67529 13.5802C3.34079 9.5601 6.16101 6.12415 9.77931 3.70689C13.3976 1.28962 17.6515 -0.000383675 22.0029 8.5598e-08C27.8376 0.000514653 33.4331 2.31869 37.5587 6.44462C41.6843 10.5705 44.0019 16.1663 44.0019 22.001Z" fill="white"/>
<path d="M22.0011 0C16.325 6.51957e-05 10.8686 2.19385 6.77216 6.12286C2.67573 10.0519 0.256306 15.4121 0.0195312 21.0832C3.3743 19.3369 6.42249 20.5787 7.9301 21.9583C9.81024 23.689 10.0004 26.1571 9.77726 28.4427C13.8965 27.8859 15.1441 32.5173 15.049 33.7669C15.0102 34.2656 14.9734 34.3238 14.855 34.3917C14.7304 34.4412 14.5916 34.4412 14.4669 34.3917C14.4543 34.1301 14.3882 33.8739 14.2729 33.6388C14.1759 33.4448 14.0789 33.2372 13.9702 33.0451C13.5705 32.1351 12.7731 31.033 11.6884 30.5829C11.3634 30.4069 11.019 30.2695 10.662 30.1735C9.94412 29.9794 9.16995 30.1502 8.47144 30.3326C8.14935 30.416 7.82921 30.513 7.5013 30.5984C7.36742 30.6314 7.2316 30.6527 7.09384 30.676C6.87652 30.4141 6.70578 30.0939 6.73876 29.8262C7.03645 29.4392 7.4028 29.1104 7.8195 28.856C8.03876 27.3038 7.5304 23.5241 3.56444 23.559C2.40027 23.559 1.17012 24.275 0.291172 25.6002C0.97783 29.741 2.83463 33.5989 5.64247 36.7188C8.4503 39.8386 12.092 42.0902 16.1378 43.2077C20.1836 44.3253 24.4646 44.2622 28.4757 43.026C32.4869 41.7898 36.0606 39.4319 38.7754 36.2307C41.4901 33.0295 43.2325 29.1186 43.7969 24.9594C44.3613 20.8002 43.7242 16.5664 41.9607 12.7575C40.1973 8.94859 37.3811 5.72363 33.8444 3.46315C30.3078 1.20267 26.1984 0.00102283 22.0011 0ZM18.3708 23.0895C18.1336 24.5373 17.9787 25.9975 17.9071 27.4629C17.8683 29.0947 17.9634 31.1591 17.1659 30.3287C16.6614 29.8009 16.2113 28.759 16.0657 27.6724C15.9202 26.5859 15.3808 22.7014 16.2986 19.5969C16.4926 18.9101 17.1504 18.2581 18.5978 18.1378C22.0904 17.8449 24.6962 17.8332 27.7832 18.4095C28.4002 18.524 29.8535 18.8208 30.5326 19.2361C30.7266 19.3525 30.6567 19.5213 30.389 19.5989C27.8006 20.342 24.3489 19.9462 21.2095 20.4158C19.7911 20.6253 18.7104 21.2287 18.3708 23.0895ZM26.5821 31.0078C26.4408 31.78 26.0063 32.4676 25.3694 32.9268C24.8868 33.2818 24.3091 33.4845 23.7105 33.5088H23.4389C22.9982 33.4932 22.5664 33.3808 22.1741 33.1796C21.7818 32.9784 21.4386 32.6933 21.1687 32.3447C20.7563 31.8121 20.5082 31.1709 20.4547 30.4994C20.4132 29.8288 20.6158 29.1658 21.0251 28.6329C21.223 28.3666 21.4613 28.1329 21.7314 27.9402C21.8245 27.8801 21.9371 27.8141 22.0244 27.7675C22.2722 27.6245 22.5415 27.5223 22.8218 27.4648C23.0266 27.4202 23.2352 27.3949 23.4447 27.3892C24.1218 27.3724 24.7859 27.5768 25.3365 27.9712C25.6054 28.1581 25.8409 28.389 26.033 28.6542C26.1422 28.7975 26.2353 28.9524 26.3105 29.116C26.4618 29.4206 26.5602 29.7486 26.6015 30.0862C26.6414 30.3926 26.6349 30.7033 26.5821 31.0078ZM35.6569 31.262C35.6327 31.4466 35.5864 31.6277 35.5191 31.8014C35.4163 32.0948 35.2537 32.3636 35.0418 32.5911C34.6125 33.0832 34.0172 33.4002 33.3693 33.4817C33.2831 33.4932 33.1962 33.4978 33.1093 33.4953C33.0297 33.4953 32.9405 33.4953 32.8551 33.4953C32.8008 33.4953 32.7464 33.4817 32.6785 33.4817C32.6418 33.4714 32.6041 33.4649 32.566 33.4623L32.4903 33.439C32.401 33.4247 32.3128 33.4039 32.2264 33.3769C31.9587 33.2972 31.7062 33.1732 31.4794 33.0102C31.2865 32.873 31.1129 32.7105 30.9633 32.5271C30.6675 32.1833 30.4709 31.7654 30.3948 31.3183C30.3675 31.1972 30.3532 31.0736 30.3521 30.9496C30.3273 30.4401 30.455 29.9348 30.7188 29.4983C31.0091 29.0114 31.4588 28.6398 31.9917 28.4466C32.0849 28.4071 32.1827 28.3791 32.2827 28.3632C32.8432 28.2751 33.417 28.3318 33.9494 28.5281C34.501 28.7239 34.9701 29.1007 35.2802 29.5971C35.5902 30.0936 35.723 30.6804 35.6569 31.262ZM38.5848 31.2115C38.3752 31.0408 38.3403 28.9006 38.1598 27.783C37.8649 25.9611 33.8039 27.0302 32.5834 25.0763C32.2749 24.5816 31.6754 22.7014 31.8287 21.2947C31.8578 21.0347 31.9063 20.9299 32.0654 20.9299C32.5446 20.9299 33.4934 23.0216 34.2657 23.9083C34.4797 24.1303 34.7567 24.2813 35.0593 24.341C36.5067 24.729 37.5545 24.9463 38.6352 25.3111C39.7703 25.6992 39.941 26.3569 40.0245 26.6518C40.1545 27.1175 40.1118 29.0403 39.2057 30.8371C39.0213 31.1844 38.7536 31.3512 38.5789 31.2115H38.5848Z" fill="#DC0814"/>
</g>
<defs>
<clipPath id="clip0_9904_73367">
<rect width="44" height="44" fill="white"/>
</clipPath>
</defs>
</svg>
