<svg width="44" height="44" viewBox="0 0 44 44" fill="none" xmlns="http://www.w3.org/2000/svg">
<g clip-path="url(#clip0_9904_73366)">
<path d="M20.2407 0.117535C16.3296 0.508644 12.6532 1.81887 9.50471 3.95042C6.55182 5.9842 3.26648 9.91487 1.95626 13.0438C-1.75929 21.8633 0.137595 31.4064 6.86471 37.8402C10.0132 40.8322 13.2985 42.5531 17.7963 43.5309C19.5758 43.922 23.9954 43.9611 25.814 43.6286C35.6505 41.7513 42.8274 33.9682 43.8052 24.0926C44.2158 19.986 43.4923 16.0944 41.5563 12.2224C40.3047 9.6802 39.0727 7.99842 37.0976 6.12109C33.9883 3.1682 29.9989 1.13443 25.9118 0.41087C24.5234 0.176205 21.3554 0.0197563 20.2407 0.117535ZM23.2132 1.09531C24.6994 1.81887 25.3447 3.46153 24.6798 4.9282C23.7803 6.96198 21.4923 7.41175 19.9474 5.86687C17.6007 3.5202 20.2212 -0.312687 23.2132 1.09531ZM21.1207 11.4402V15.234L20.2994 15.4686C16.2709 16.5442 14.2372 20.7878 15.9385 24.5815C17.8549 28.8642 23.5847 29.8615 26.8309 26.4589C30.3118 22.8215 28.6105 16.7789 23.702 15.4686L22.8807 15.234V11.4402V7.62687H23.526C24.5038 7.62687 26.4789 8.15487 27.8478 8.78065C31.5829 10.482 34.3403 13.5326 35.7287 17.5024C36.2176 18.93 36.2567 19.3211 36.2763 21.9024C36.2763 24.3664 36.2176 24.914 35.8265 26.0873C34.2034 30.9371 30.9767 34.1833 26.2052 35.7869C24.4452 36.3735 20.9838 36.53 18.9696 36.0998C17.1705 35.7086 14.7847 34.594 13.142 33.3424C10.9909 31.7193 9.05493 28.9229 8.17493 26.1264C7.62738 24.4251 7.49049 20.866 7.90115 18.9691C9.01582 13.7478 13.2007 9.38687 18.422 8.01798C19.2043 7.82242 20.1429 7.64642 20.4949 7.64642L21.1207 7.62687V11.4402Z" fill="#94302F"/>
<path d="M21.1207 11.4402V15.234L20.2994 15.4686C16.2709 16.5442 14.2372 20.7878 15.9385 24.5815C17.8549 28.8642 23.5847 29.8615 26.8309 26.4589C30.3118 22.8215 28.6105 16.7789 23.702 15.4686L22.8807 15.234V11.4402V7.62687H23.526C24.5038 7.62687 26.4789 8.15487 27.8478 8.78065C31.5829 10.482 34.3403 13.5326 35.7287 17.5024C36.2176 18.93 36.2567 19.3211 36.2763 21.9024C36.2763 24.3664 36.2176 24.914 35.8265 26.0873C34.2034 30.9371 30.9767 34.1833 26.2052 35.7869C24.4452 36.3735 20.9838 36.53 18.9696 36.0998C17.1705 35.7086 14.7847 34.594 13.142 33.3424C10.9909 31.7193 9.05493 28.9229 8.17493 26.1264C7.62738 24.4251 7.49049 20.866 7.90115 18.9691C9.01582 13.7478 13.2007 9.38687 18.422 8.01798C19.2043 7.82242 20.1429 7.64642 20.4949 7.64642L21.1207 7.62687V11.4402Z" fill="white"/>
<path d="M23.2132 1.09531C24.6994 1.81887 25.3447 3.46153 24.6798 4.9282C23.7803 6.96198 21.4923 7.41175 19.9474 5.86687C17.6007 3.5202 20.2212 -0.312687 23.2132 1.09531Z" fill="white"/>
</g>
<defs>
<clipPath id="clip0_9904_73366">
<rect width="44" height="44" fill="white"/>
</clipPath>
</defs>
</svg>
