<svg width="44" height="44" viewBox="0 0 44 44" fill="none" xmlns="http://www.w3.org/2000/svg">
<circle cx="22" cy="22" r="22" fill="#2AABEE"/>
<g clip-path="url(#clip0_9831_69212)">
<path fill-rule="evenodd" clip-rule="evenodd" d="M29.9398 11.7886C30.2262 11.6632 30.5397 11.6199 30.8477 11.6634C31.1556 11.7068 31.4467 11.8353 31.6907 12.0355C31.9347 12.2357 32.1227 12.5003 32.235 12.8017C32.3474 13.1032 32.3801 13.4304 32.3297 13.7495L29.7011 30.3395C29.4461 31.9398 27.7586 32.8575 26.3482 32.0604C25.1683 31.3935 23.4159 30.3661 21.8397 29.294C21.0516 28.7573 18.6374 27.0389 18.9341 25.8161C19.1891 24.7705 23.2456 20.8416 25.5635 18.5057C26.4733 17.588 26.0584 17.0586 24.984 17.9027C22.3149 19.9986 18.0325 23.1859 16.6162 24.0831C15.3668 24.8742 14.7155 25.0093 13.9366 24.8742C12.5157 24.6282 11.1979 24.2471 10.1224 23.7829C8.66905 23.1558 8.73974 21.0767 10.1213 20.4714L29.9398 11.7886Z" fill="white"/>
</g>
<defs>
<clipPath id="clip0_9831_69212">
<rect width="28.4706" height="28.4706" fill="white" transform="translate(7.76562 7.76465)"/>
</clipPath>
</defs>
</svg>
