<svg width="44" height="44" viewBox="0 0 44 44" fill="none" xmlns="http://www.w3.org/2000/svg">
<circle cx="22" cy="22" r="22" fill="#0077FF"/>
<g clip-path="url(#clip0_9904_73363)">
<path fill-rule="evenodd" clip-rule="evenodd" d="M32.0585 25.2857C32.0585 25.2857 34.3709 27.5694 34.9429 28.6261C34.954 28.6414 34.9627 28.6583 34.9686 28.6762C35.2017 29.0666 35.2589 29.3726 35.1445 29.5985C34.9514 29.9718 34.2979 30.1591 34.0763 30.1748H29.9893C29.7048 30.1748 29.1127 30.1005 28.392 29.6028C27.8415 29.2182 27.2938 28.5847 26.7633 27.9655C25.971 27.046 25.2861 26.2481 24.5925 26.2481C24.5049 26.2479 24.4179 26.2624 24.3351 26.291C23.8103 26.4568 23.1439 27.2047 23.1439 29.1967C23.1439 29.8202 22.652 30.1748 22.3074 30.1748H20.4355C19.7977 30.1748 16.4773 29.9518 13.5329 26.8472C9.92501 23.0463 6.68463 15.4215 6.65317 15.3543C6.45154 14.861 6.87482 14.5921 7.33242 14.5921H11.4594C12.0128 14.5921 12.193 14.9267 12.3188 15.227C12.4647 15.5717 13.0052 16.9502 13.8918 18.4989C15.3275 21.0185 16.2099 22.0439 16.9149 22.0439C17.0473 22.0442 17.1775 22.0097 17.2924 21.9438C18.2133 21.4375 18.0417 18.1485 17.9988 17.4707C17.9988 17.3392 17.9974 16.0021 17.5255 15.3557C17.188 14.8924 16.6131 14.7122 16.2656 14.6465C16.3586 14.512 16.5559 14.3061 16.809 14.1846C17.4397 13.87 18.5794 13.8242 19.7105 13.8242H20.3383C21.5652 13.8414 21.8827 13.92 22.3288 14.033C23.2269 14.2475 23.244 14.8295 23.1654 16.8115C23.1425 17.3778 23.1182 18.0155 23.1182 18.7663C23.1182 18.9265 23.111 19.1052 23.111 19.2868C23.0839 20.3035 23.0481 21.449 23.766 21.9194C23.8591 21.9774 23.9666 22.0082 24.0763 22.0081C24.3251 22.0081 25.0701 22.0081 27.0907 18.5404C27.9773 17.0088 28.6637 15.2027 28.7109 15.0669C28.751 14.9911 28.8711 14.778 29.0169 14.6922C29.1207 14.637 29.2369 14.6094 29.3544 14.6121H34.2093C34.7384 14.6121 35.0973 14.6922 35.1674 14.8924C35.2846 15.217 35.1445 16.208 32.928 19.2053C32.5548 19.7044 32.2273 20.1362 31.9399 20.5138C29.9307 23.1507 29.9307 23.2837 32.0585 25.2857Z" fill="white"/>
</g>
<defs>
<clipPath id="clip0_9904_73363">
<rect width="28.6" height="28.6" fill="white" transform="translate(6.60156 7.69922)"/>
</clipPath>
</defs>
</svg>
