<svg width="44" height="44" viewBox="0 0 44 44" fill="none" xmlns="http://www.w3.org/2000/svg">
<circle cx="22" cy="22" r="22" fill="#25D366"/>
<g clip-path="url(#clip0_9831_69211)">
<path d="M29.1863 24.8257C28.834 24.6489 27.1008 23.7972 26.7782 23.6786C26.4543 23.5611 26.2194 23.503 25.9834 23.8565C25.7497 24.2088 25.0735 25.0025 24.8683 25.2373C24.6631 25.4734 24.4566 25.5019 24.1043 25.3263C23.752 25.1484 22.6155 24.7771 21.2691 23.5766C20.2216 22.6418 19.5134 21.4875 19.3082 21.134C19.103 20.7817 19.2869 20.5907 19.4624 20.4151C19.6214 20.2574 19.8159 20.0035 19.9915 19.7983C20.1683 19.5919 20.2264 19.4448 20.345 19.2087C20.4625 18.9738 20.4043 18.7686 20.3154 18.5918C20.2264 18.4151 19.5217 16.6796 19.2287 15.9737C18.9416 15.2869 18.651 15.3806 18.4351 15.3687C18.2098 15.3597 17.9844 15.3558 17.7589 15.3569C17.5241 15.3569 17.1421 15.4446 16.8194 15.7981C16.4967 16.1505 15.5857 17.0034 15.5857 18.7389C15.5857 20.4733 16.8491 22.1495 17.0246 22.3855C17.2014 22.6204 19.5111 26.1816 23.0473 27.7083C23.8884 28.0713 24.5444 28.2884 25.0569 28.4498C25.9015 28.7191 26.6702 28.6811 27.2764 28.5897C27.9538 28.4889 29.3619 27.7368 29.6561 26.9135C29.9503 26.0903 29.9503 25.3844 29.8613 25.2373C29.7735 25.0902 29.5398 25.0025 29.1863 24.8257ZM22.7543 33.6077H22.7496C20.6496 33.6079 18.5882 33.0432 16.7814 31.973L16.3532 31.7191L11.9153 32.8841L13.0992 28.5565L12.8205 28.1129C11.6466 26.2436 11.0256 24.0803 11.0292 21.8731C11.0304 15.4079 16.2915 10.1479 22.7591 10.1479C25.8908 10.1479 28.8352 11.3698 31.0488 13.5857C32.1409 14.6731 33.0066 15.9663 33.5957 17.3904C34.1848 18.8146 34.4856 20.3414 34.4807 21.8826C34.4771 28.3477 29.2172 33.6077 22.7543 33.6077ZM32.7345 11.9024C31.4274 10.5868 29.8723 9.54356 28.1591 8.83329C26.446 8.12303 24.6089 7.75981 22.7543 7.7647C14.9783 7.7647 8.64953 14.0935 8.64597 21.8719C8.64597 24.3583 9.29486 26.7854 10.5298 28.9243L8.52734 36.2353L16.0068 34.2732C18.0752 35.4001 20.393 35.9906 22.7484 35.9909H22.7543C30.5292 35.9909 36.8591 29.6621 36.8627 21.8826C36.8684 20.0287 36.5065 18.1922 35.7979 16.4791C35.0893 14.766 34.0481 13.2105 32.7345 11.9024Z" fill="white"/>
</g>
<defs>
<clipPath id="clip0_9831_69211">
<rect width="28.4706" height="28.4706" fill="white" transform="translate(8.53125 7.76465)"/>
</clipPath>
</defs>
</svg>
