<svg width="44" height="44" viewBox="0 0 44 44" fill="none" xmlns="http://www.w3.org/2000/svg">
<circle cx="22" cy="22" r="22" fill="white"/>
<path d="M22 9.75C16.2009 9.75 11.5 14.4509 11.5 20.25C11.5 23.1485 12.6744 25.773 14.5739 27.673C16.4739 29.574 20.95 32.325 21.2125 35.2125C21.2519 35.6455 21.5653 36 22 36C22.4347 36 22.7481 35.6455 22.7875 35.2125C23.05 32.325 27.5261 29.574 29.4261 27.673C31.3256 25.773 32.5 23.1485 32.5 20.25C32.5 14.4509 27.7992 9.75 22 9.75Z" fill="#FF4433"/>
<path d="M21.9992 23.9262C24.0289 23.9262 25.6742 22.2808 25.6742 20.2512C25.6742 18.2215 24.0289 16.5762 21.9992 16.5762C19.9696 16.5762 18.3242 18.2215 18.3242 20.2512C18.3242 22.2808 19.9696 23.9262 21.9992 23.9262Z" fill="white"/>
</svg>
